:SAMPLES-PER-SECOND 30
:FULLY-SPECIFIED
:DEGREES
254
root  72.349 37.587 1.10639 -151.783 -87.6414 148.551
RightUpLeg  9.7208 -5.03929 -3.91986
RightLeg  19.1585 1.64442 0.279053
RightFoot  -23.5111 0.214185 3.49698
RightToes  3.49245e-010 0 -3.6325e-017
Spine  4.62326 2.40556 9.36452
Spine1  7.00519 4.50158 -7.49833
HEad  14.1317 18.0749 -3.17205
LeftShoulder1  -0.650342 5.13396 -33.7354
LeftArm  0.437459 16.2064 -38.6897
LeftForeArm  27.6179 -41.1 -7.95983
LeftHand  -0.0209874 5.82136 2.06911
RightShoulder  -0.939393 -6.0962 29.6634
RightArm  22.1798 3.02189 47.8109
RightForeArm  8.6353 19.0738 4.99676
RightHand  -0.265407 6.08218 -3.01522
LeftUpLeg  -20.8243 1.05902 0.535335
LeftLeg  6.61897 -9.64446 -0.537588
LeftFoot  9.65432 0.843424 -4.83494
LeftToes  -5.6298e-010 8.41567e-011 -1.83319e-011
255
root  73.2537 37.8114 0.902349 -135.807 -87.6916 132.554
RightUpLeg  8.89602 -5.93403 -3.95151
RightLeg  17.9283 1.8711 0.266802
RightFoot  -22.4538 0.0814903 2.3995
RightToes  3.49245e-010 0 -3.6325e-017
Spine  4.59018 2.32084 9.01926
Spine1  7.64543 4.40974 -7.29795
HEad  15.8859 19.2219 -2.77278
LeftShoulder1  -0.650417 5.12918 -33.8501
LeftArm  2.44624 16.8328 -38.3337
LeftForeArm  23.1332 -35.6477 -6.67415
LeftHand  -0.0172416 6.21689 2.01111
RightShoulder  -0.966061 -6.16063 29.7965
RightArm  19.7298 3.15335 47.5485
RightForeArm  12.3595 16.2277 5.66704
RightHand  -0.2426 6.08888 -2.78691
LeftUpLeg  -19.1398 2.20764 0.562482
LeftLeg  1.71708 -7.0464 0.0379619
LeftFoot  6.53176 0.66229 -4.47259
LeftToes  -5.6298e-010 8.41567e-011 -1.83319e-011
256
root  74.021 38.015 0.781905 -97.1261 -88.1129 94.1062
RightUpLeg  8.1213 -7.64044 -4.0388
RightLeg  16.6473 1.88207 0.220249
RightFoot  -21.1698 9.85639e-005 1.67461
RightToes  3.49245e-010 0 -3.6325e-017
Spine  3.63157 1.85593 8.4292
Spine1  8.63754 3.6738 -6.34163
HEad  16.4647 19.7322 -2.73915
LeftShoulder1  -0.638875 5.11309 -33.5401
LeftArm  5.64817 16.1234 -37.9494
LeftForeArm  19.6381 -29.2628 -5.20561
LeftHand  -0.0265428 6.60974 0.786087
RightShoulder  -0.982516 -6.21649 29.66
RightArm  15.8667 2.86472 46.7922
RightForeArm  16.0805 13.2574 6.11472
RightHand  -0.299061 5.54841 -3.47275
LeftUpLeg  -18.5041 2.28206 0.603602
LeftLeg  -0.342719 -2.41942 0.112899
LeftFoot  3.84603 0.573126 -4.47036
LeftToes  -5.6298e-010 8.41567e-011 -1.83319e-011
257
root  74.6928 38.2159 0.717071 -71.6313 -87.7339 68.9799
RightUpLeg  7.22994 -8.65982 -4.21948
RightLeg  15.5576 2.0786 0.348285
RightFoot  -19.8486 -0.0276769 1.43289
RightToes  3.49245e-010 0 -3.6325e-017
Spine  2.96003 1.77439 8.10955
Spine1  9.1387 3.40583 -5.65499
HEad  16.2365 20.4957 -2.9224
LeftShoulder1  -0.633854 5.10571 -33.4118
LeftArm  7.5058 14.8121 -37.0705
LeftForeArm  18.8892 -23.22 -4.42851
LeftHand  -0.0382302 8.01715 0.214869
RightShoulder  -0.990769 -6.24167 29.6234
RightArm  11.6866 1.8583 44.8253
RightForeArm  16.9188 10.6956 5.86565
RightHand  -0.363725 6.16598 -4.03743
LeftUpLeg  -19.0235 2.63343 0.702082
LeftLeg  2.13181 1.64864 -0.196082
LeftFoot  3.09186 0.45299 -3.72528
LeftToes  -5.6298e-010 8.41567e-011 -1.83319e-011
258
root  75.2863 38.3983 0.674145 -72.7103 -86.9763 69.9178
RightUpLeg  6.93167 -9.23372 -4.98885
RightLeg  14.5858 2.65593 0.51097
RightFoot  -18.9018 -0.0453902 1.2538
RightToes  3.49245e-010 0 -3.6325e-017
Spine  3.30138 1.91722 7.73283
Spine1  9.02181 3.56985 -5.4954
HEad  16.4697 19.9827 -2.84623
LeftShoulder1  -0.562706 4.93896 -33.043
LeftArm  3.30781 13.3513 -35.4311
LeftForeArm  23.2337 -17.0976 -5.66448
LeftHand  -0.0649005 8.16823 -0.770114
RightShoulder  -0.889056 -6.01553 28.8138
RightArm  8.51983 0.0803153 42.5734
RightForeArm  15.5404 8.7829 5.07001
RightHand  -0.211299 7.63421 -2.2324
LeftUpLeg  -18.9441 2.96126 0.401885
LeftLeg  6.56123 2.541 0.103475
LeftFoot  2.04071 0.311894 -2.76146
LeftToes  -5.6298e-010 8.41567e-011 -1.83319e-011
259
root  75.8159 38.491 0.695135 -65.958 -86.2536 63.145
RightUpLeg  6.38947 -9.74014 -5.58182
RightLeg  14.1305 2.74751 0.55704
RightFoot  -18.5279 -0.0358049 1.4261
RightToes  3.49245e-010 0 -3.6325e-017
Spine  4.22015 1.72947 8.01177
Spine1  7.61065 3.54481 -6.06107
HEad  17.1149 19.1191 -2.23006
LeftShoulder1  -0.488039 4.78028 -32.1033
LeftArm  -2.99392 12.7957 -33.0001
LeftForeArm  26.6423 -12.892 -6.79149
LeftHand  -0.0867909 9.0022 -1.17776
RightShoulder  -0.824492 -5.84518 28.6078
RightArm  6.85779 -1.6949 39.4095
RightForeArm  14.0444 7.23553 4.31035
RightHand  -0.236727 6.92974 -2.57387
LeftUpLeg  -19.046 2.92064 0.0611775
LeftLeg  12.0516 1.2155 0.481995
LeftFoot  0.548112 0.171573 -1.6751
LeftToes  -5.6298e-010 8.41567e-011 -1.83319e-011
260
root  76.2668 38.5322 0.764061 -66.8623 -86.0884 63.9984
RightUpLeg  5.71462 -10.0238 -5.88602
RightLeg  14.1255 3.12344 0.672226
RightFoot  -18.371 -0.0292312 1.54759
RightToes  3.49245e-010 0 -3.6325e-017
Spine  5.19826 1.71326 8.64208
Spine1  6.11159 3.71473 -6.64537
HEad  16.5121 19.0335 -2.2981
LeftShoulder1  -0.458067 4.72108 -31.4814
LeftArm  -5.59125 12.5377 -30.0864
LeftForeArm  25.7552 -10.983 -6.70037
LeftHand  -0.0625695 8.96064 -0.433441
RightShoulder  -0.82197 -5.85293 28.3731
RightArm  5.63981 -2.91429 35.7163
RightForeArm  13.3987 5.88822 3.60513
RightHand  -0.202722 6.42353 -2.33624
LeftUpLeg  -18.8047 2.38107 0.491471
LeftLeg  17.8543 0.487982 0.531134
LeftFoot  -1.5192 0.0918146 -0.967223
LeftToes  -5.6298e-010 8.41567e-011 -1.83319e-011
